<svg xmlns="http://www.w3.org/2000/svg" viewBox="0 0 123.29 99.09"><defs><style>.cls-1{fill:#ff7333;}.cls-2{fill:#fc3;}.cls-3{fill:red;}.cls-4{fill:#fff;}.cls-5{fill:#fe0000;}.cls-6{fill:#f6f6f6;}.cls-7{fill:#e10707;}.cls-8{fill:#d7d7d7;}</style></defs><path class="cls-1" d="M8,33A12,12,0,0,1,20,21H60.48A11.91,11.91,0,0,1,67,22.91l47.53,30.55A12,12,0,0,1,120,63.55V81a12,12,0,0,1-12,12H20A12,12,0,0,1,8,81Z" transform="translate(-8 -7.91)"/><rect class="cls-2" y="27.09" width="112" height="72" rx="12"/><path class="cls-3" d="M104.27,50.8a10.54,10.54,0,0,0-7.4-7.41C90.29,41.59,64,41.59,64,41.59s-26.29,0-32.87,1.73a10.74,10.74,0,0,0-7.4,7.48C22,57.37,22,71,22,71s0,13.7,1.73,20.2a10.54,10.54,0,0,0,7.4,7.41c6.65,1.8,32.87,1.8,32.87,1.8s26.29,0,32.87-1.73a10.54,10.54,0,0,0,7.4-7.41C106,84.7,106,71.07,106,71.07S106.07,57.37,104.27,50.8Z" transform="translate(-8 -7.91)"/><path class="cls-4" d="M55.63,58.41V83.59L77.49,71Z" transform="translate(-8 -7.91)"/><path class="cls-5" d="M58.82,16.39a31.77,31.77,0,0,1,8.07-4.65A51.51,51.51,0,0,1,87.57,7.91a81.56,81.56,0,0,1,23,3.68c4,1.2,6,1,10,5.27a54.34,54.34,0,0,1,4.27,4.48,26.45,26.45,0,0,1,5,11.36,23.68,23.68,0,0,1,1.08,12.42,22.77,22.77,0,0,1-2.17,6.26c-.29,3.63-.72,4.47-1.08,4.5-.82.07-1-4.1-3.59-5.27a5.35,5.35,0,0,0-4.37.45c.7-1,4.31-6.47,2.38-12.12a10.47,10.47,0,0,0-1.49-2.85,17.17,17.17,0,0,0-4.46-8,13.13,13.13,0,0,0-8-3.85c-1.59-.23-2.36.21-1.78,1.14A7.68,7.68,0,0,0,108,27.35c1.48,1.25,3.14,2.44,4.73,3.65a9.79,9.79,0,0,1,2.79,3.31,27.07,27.07,0,0,1-5.64-1.79,148.12,148.12,0,0,0-16.34-6.79q-4.44-1.5-9-2.58c-2.65-.64-5.28-1.38-7.92-2.08-2.1-.56-4.2-1.14-6.31-1.66-2.86-.69-5.73-1.3-8.58-2A26.66,26.66,0,0,1,58.82,16.39Z" transform="translate(-8 -7.91)"/><path class="cls-6" d="M43.26,24c-2.07-2.23-1.78-3.38-1.56-3.7s1.41-.18,2.46-.71c.78-.4,1-.06,1.81-.68s1.12-.32,3.89-1.2A9.87,9.87,0,0,1,52,17.2a6.81,6.81,0,0,1,1.5,0c1.14.17,2.27.41,3.41.62s2,.61,3,.88l8.19,2.09c2.54.64,5.09,1.25,7.62,1.91s5.25,1.43,7.88,2.12,5.23,1.27,7.76,2.07a136.06,136.06,0,0,1,18.85,7.76,6.61,6.61,0,0,0,1.38.48,20.4,20.4,0,0,1,7.23,3.05c.54.58,1,1.17,1.49,1.76,1,1.45,1.28,2.82.5,4.06a.65.65,0,0,0,.06.7c.83,1.23.44,2.26.16,3.3a5,5,0,0,1-2.8.81,16.75,16.75,0,0,1-5.59-1.26c-2.59-1-5.12-2.19-7.63-3.33A175.62,175.62,0,0,0,79.94,35.4l-7.06-1.93C69.43,32.53,66,32,62.47,31.34a25.89,25.89,0,0,1-5.79-1.47c-.91-.39-1.68-.91-2.55-1.35a20.08,20.08,0,0,0-6.44-2.26C46,26,43.6,25,43.26,24Z" transform="translate(-8 -7.91)"/><path class="cls-7" d="M118.82,38.18a20.17,20.17,0,0,0-7.22-3,6.62,6.62,0,0,1-1.38-.49,136.57,136.57,0,0,0-18.85-7.76c-2.53-.8-5.18-1.37-7.77-2.06s-5.24-1.45-7.87-2.13-5.08-1.26-7.62-1.91l-8.19-2.09c-1-.27-2-.58-3-.87l1.94-1.42a28.16,28.16,0,0,0,2.84,1c2.85.71,5.72,1.32,8.57,2,2.12.51,4.21,1.1,6.32,1.66,2.63.69,5.26,1.45,7.91,2.08,3.07.72,6.1,1.59,9.05,2.58a147.68,147.68,0,0,1,16.34,6.8,27.26,27.26,0,0,0,5.64,1.79A9.7,9.7,0,0,0,112.7,31c-1.59-1.21-3.24-2.4-4.73-3.64a7.94,7.94,0,0,1-1.59-1.94c-.58-.93.19-1.36,1.78-1.14a13.24,13.24,0,0,1,8,3.85,17.17,17.17,0,0,1,4.45,8l-.15-.09-1.63-.78c-.16.32-.47.62-.45,1A14.84,14.84,0,0,0,118.82,38.18Z" transform="translate(-8 -7.91)"/><path class="cls-8" d="M43.26,24c.34,1,2.76,2,4.43,2.25a20.44,20.44,0,0,1,6.43,2.26c.87.43,1.65,1,2.55,1.35a25.89,25.89,0,0,0,5.79,1.47c3.48.62,7,1.19,10.41,2.13l7.06,1.93A175.65,175.65,0,0,1,105,44.22c2.52,1.13,5,2.27,7.63,3.32a16.51,16.51,0,0,0,5.6,1.26A5,5,0,0,0,121,48a5.08,5.08,0,0,1-.48,1.58c-.66,1-2.7,1.24-5.08.7a32.77,32.77,0,0,1-6.7-2.36A163.83,163.83,0,0,0,92,41c-2.62-.91-5.3-1.73-8-2.52-3.33-1-6.71-1.84-10.06-2.78-1.09-.3-2.15-.69-3.25-1s-2.41-.53-3.63-.77c-3-.6-6.1-1.13-9.12-1.82a13.65,13.65,0,0,1-3.36-1.38A22.17,22.17,0,0,0,47.07,28a9.5,9.5,0,0,1-3.38-1.42,2.9,2.9,0,0,1-.82-.92c-1.43-1.95-2.6-3.7-1.33-4.92C42.09,21.73,41.84,22.53,43.26,24Z" transform="translate(-8 -7.91)"/><path class="cls-6" d="M117.9,52a22.66,22.66,0,0,1,2.44-1.27,4.62,4.62,0,0,1,3.26-.19,2.82,2.82,0,0,0,.87,0,5,5,0,0,1,2.88,2.59A7.4,7.4,0,0,1,127.6,58c-.16.32-.34.63-.49,1a11.38,11.38,0,0,1-3.57,4.69,4.67,4.67,0,0,1-5.46.19A5.91,5.91,0,0,1,114.8,59c0-.1-.09-.17-.14-.26a12.28,12.28,0,0,1,2.6-6A7.43,7.43,0,0,1,117.9,52Z" transform="translate(-8 -7.91)"/><path class="cls-8" d="M114.67,58.73c0,.09.13.16.14.26a5.92,5.92,0,0,0,3.28,4.79,4.65,4.65,0,0,0,5.46-.18,11.32,11.32,0,0,0,3.57-4.69c.14-.32.32-.64.49-.95a12.18,12.18,0,0,1-4.4,7.5,4.6,4.6,0,0,1-4.89.53A6.36,6.36,0,0,1,115,62.88a6.65,6.65,0,0,1-.48-3.9C114.51,58.9,114.6,58.81,114.67,58.73Z" transform="translate(-8 -7.91)"/></svg>