<svg id="Слой_1" data-name="Слой 1" xmlns="http://www.w3.org/2000/svg" viewBox="0 0 112 86"><defs><style>.cls-1{fill:#ff7333;}.cls-2{fill:#fc3;}.cls-3{fill:red;}.cls-4{fill:#fff;}</style></defs><path class="cls-1" d="M8,33A12,12,0,0,1,20,21H60.48A11.91,11.91,0,0,1,67,22.91l47.53,30.55A12,12,0,0,1,120,63.55V81a12,12,0,0,1-12,12H20A12,12,0,0,1,8,81Z" transform="translate(-8 -21)"/><rect class="cls-2" y="14" width="112" height="72" rx="12"/><path class="cls-3" d="M104.27,50.3a10.53,10.53,0,0,0-7.4-7.4C90.29,41.1,64,41.1,64,41.1s-26.29,0-32.87,1.73a10.73,10.73,0,0,0-7.4,7.47C22,56.87,22,70.51,22,70.51s0,13.7,1.73,20.2a10.53,10.53,0,0,0,7.4,7.4c6.65,1.8,32.87,1.8,32.87,1.8s26.29,0,32.87-1.73a10.53,10.53,0,0,0,7.4-7.4C106,84.21,106,70.57,106,70.57S106.07,56.87,104.27,50.3Z" transform="translate(-8 -21)"/><path class="cls-4" d="M55.63,57.91V83.1L77.49,70.51Z" transform="translate(-8 -21)"/></svg>