<?xml version="1.0" encoding="UTF-8" standalone="no"?>
<svg
   id="uuid-97e215cf-1c16-4164-b140-8c755932a576"
   data-name="Layer 1"
   viewBox="0 0 126 131"
   version="1.1"
   sodipodi:docname="syts-icon-birthday-themed.svg"
   inkscape:version="1.4 (86a8ad7, 2024-10-11)"
   width="126"
   height="131"
   xmlns:inkscape="http://www.inkscape.org/namespaces/inkscape"
   xmlns:sodipodi="http://sodipodi.sourceforge.net/DTD/sodipodi-0.dtd"
   xmlns="http://www.w3.org/2000/svg"
   xmlns:svg="http://www.w3.org/2000/svg">
  <sodipodi:namedview
     id="namedview22"
     pagecolor="#ffffff"
     bordercolor="#000000"
     borderopacity="0.25"
     inkscape:showpageshadow="2"
     inkscape:pageopacity="0.0"
     inkscape:pagecheckerboard="0"
     inkscape:deskcolor="#d1d1d1"
     inkscape:zoom="4.813983"
     inkscape:cx="105.83752"
     inkscape:cy="87.765162"
     inkscape:window-width="1920"
     inkscape:window-height="1111"
     inkscape:window-x="-9"
     inkscape:window-y="-9"
     inkscape:window-maximized="1"
     inkscape:current-layer="uuid-97e215cf-1c16-4164-b140-8c755932a576" />
  <defs
     id="defs1">
    <style
       id="style1">
      .uuid-e32717ff-dc38-423b-ba3a-26049ca9a7b5 {
        fill: #d3976e;
      }

      .uuid-95fcdc2d-b844-420e-bb7f-8b956bb81b88 {
        fill: #428bc1;
      }

      .uuid-e9b7ed14-2462-489d-a1c7-bc82fd2234e7 {
        fill: #42ade2;
      }

      .uuid-9917e80c-c7aa-4abf-a319-33407d7b4ee7 {
        fill: #fff;
      }

      .uuid-5933ef8e-8179-44d7-b4f9-47e94a235106 {
        fill: #9fe4ff;
      }

      .uuid-54a1651e-79c9-4d6f-9ba3-ccb5e51c93b2 {
        fill: #ffdd7d;
      }

      .uuid-ac2e0132-9e72-4779-9d02-d24be62d6294 {
        fill: #ff2c68;
      }

      .uuid-a1a415d8-d4e1-4f83-a3f5-e7b8c1902a94 {
        fill: #ff8b00;
      }

      .uuid-15653dac-d51e-4fa0-b092-9460368c9a16 {
        fill: #d0d0d0;
      }

      .uuid-677d41a9-043c-4f8c-8d82-c9f11fb2694c {
        fill: #cea9f7;
      }

      .uuid-227d0c42-ff2f-41b8-a6e1-2102b435ad27 {
        fill: #a80038;
      }

      .uuid-4592926c-997a-42db-97fb-d32cbe0009ab {
        fill: #ffa4a4;
      }

      .uuid-131f1f19-8127-469e-9ec7-ec489f454db4 {
        fill: #fff033;
      }
    </style>
  </defs>
  <path
     class="uuid-677d41a9-043c-4f8c-8d82-c9f11fb2694c"
     d="M 0.00533932,71.718159 C 0.00266965,71.741299 -2.44e-8,71.765319 -2.44e-8,71.788459 L 0.0364855,71.720828 H 0.00533932 Z"
     id="path2"
     style="stroke-width:0.0889891" />
  <path
     class="uuid-677d41a9-043c-4f8c-8d82-c9f11fb2694c"
     d="m 126.26038,71.718159 v 0 c -0.003,0.02314 0,0.04716 0,0.06763 z"
     id="path3"
     style="stroke-width:0.0889891" />
  <rect
     class="cls-2"
     y="49.83091"
     width="126.26302"
     height="81.16909"
     rx="13.52818"
     id="rect1-0"
     x="6.2737547e-07"
     style="fill:#ffcc33;stroke-width:1.12735" />
  <path
     class="cls-3"
     d="m 108.52984,67.079318 a 11.87098,11.87098 0 0 0 -8.34238,-8.342388 c -7.417946,-2.029218 -37.055949,-2.029218 -37.055949,-2.029218 0,0 -29.637978,0 -37.055942,1.95032 a 12.096448,12.096448 0 0 0 -8.342378,8.421286 c -1.950314,7.406685 -1.950314,22.783712 -1.950314,22.783712 0,0 0,15.44467 1.950314,22.77244 a 11.87098,11.87098 0 0 0 8.342378,8.34238 c 7.496878,2.02922 37.055942,2.02922 37.055942,2.02922 0,0 29.638003,0 37.055949,-1.95031 a 11.87098,11.87098 0 0 0 8.34238,-8.34238 c 1.95032,-7.40668 1.95032,-22.78371 1.95032,-22.78371 0,0 0.0789,-15.444667 -1.95032,-22.851352 z"
     id="path2-7"
     style="fill:#ff0000;stroke-width:1.12735" />
  <path
     class="uuid-227d0c42-ff2f-41b8-a6e1-2102b435ad27"
     d="m -2.4400002e-8,59.196505 v 43.848475 c 0,2.37423 2.190021224400002,4.29996 4.891729724400002,4.29996 2.7017085,0 4.8970691,-1.92484 4.8970691,-4.29996 V 93.02926 c 0,-3.15377 2.9072732,-5.710426 6.4979822,-5.710426 3.59071,0 6.499763,2.556656 6.499763,5.710426 v 12.35614 c 0,3.66813 3.385144,6.6457 7.557842,6.6457 4.172698,0 7.555173,-2.97757 7.555173,-6.6457 V 92.75963 c 0,-3.30239 3.047876,-5.97562 6.801436,-5.97562 3.753559,0 6.804105,2.67323 6.804105,5.97562 v 8.04817 c 0,1.83673 1.689012,3.32285 3.780256,3.32285 2.091243,0 3.774917,-1.48612 3.774917,-3.32285 v -6.38586 c 0,-2.3849 2.203369,-4.31775 4.917536,-4.31775 2.714167,0 4.907748,1.93285 4.907748,4.31775 v 10.96346 c 0,3.66813 3.387814,6.6457 7.560512,6.6457 4.172698,0 7.560512,-2.97757 7.560512,-6.6457 V 93.0969 c 0,-3.11729 2.873458,-5.648142 6.422342,-5.648142 3.548885,0 6.427682,2.530852 6.427682,5.648142 v 8.96831 c 0,1.83407 1.689012,3.32019 3.777585,3.32019 2.08857,0 3.78026,-1.48612 3.78026,-3.32019 v -6.27906 c 0,-1.63384 1.50391,-2.95889 3.362,-2.95889 1.8581,0 3.37002,1.32505 3.37002,2.95889 v 9.59925 c 0,3.66813 3.37981,6.6457 7.55517,6.6457 4.17537,0 7.55785,-2.97757 7.55785,-6.6457 V 59.370034 L 0.00266965,59.195615 Z"
     id="path6"
     style="stroke-width:0.0889891" />
  <ellipse
     class="uuid-ac2e0132-9e72-4779-9d02-d24be62d6294"
     cx="63.131523"
     cy="59.193832"
     rx="63.131523"
     ry="26.551672"
     id="ellipse6"
     style="stroke-width:0.0889891" />
  <path
     class="uuid-4592926c-997a-42db-97fb-d32cbe0009ab"
     d="M 17.35999,56.411147 C 17.014712,39.417792 91.947967,37.191286 92.25231,52.178826 92.481011,63.381662 44.675188,63.976109 44.49365,55.00512 c -0.132594,-6.346702 29.541705,-6.464167 29.637813,-1.725499 0.09611,4.73333 -24.142737,5.328666 -18.57558,-0.468082 -9.62061,7.157391 20.932011,7.65929 20.794078,0.906799 -0.16107,-7.871975 -36.223895,-6.653714 -36.062825,1.410476 0.24383,12.06781 55.563002,10.724074 55.288026,-2.792477 C 95.213866,34.740526 12.553689,35.337643 12.985287,56.526833 13.455149,79.631068 94.172694,88.05566 120.30345,58.58693 84.75231,85.242719 17.68302,72.296588 17.36088,56.410257 Z"
     id="path7"
     style="stroke-width:0.0889891" />
  <path
     class="uuid-e9b7ed14-2462-489d-a1c7-bc82fd2234e7"
     d="m 10.628856,24.863628 v 28.052918 c 0,4.006288 8.31069,3.302385 8.31069,0 V 24.863628 c 0,-4.006288 -8.31069,-4.006288 -8.31069,0 z"
     id="path8"
     style="stroke-width:0.0889891" />
  <polygon
     class="uuid-95fcdc2d-b844-420e-bb7f-8b956bb81b88"
     points="503.4,490.82 503.4,434.94 410.01,482.88 410.01,538.81 "
     id="polygon8"
     transform="matrix(0.08898908,0,0,0.08898908,-25.857557,-11.193857)" />
  <polygon
     class="uuid-95fcdc2d-b844-420e-bb7f-8b956bb81b88"
     points="503.4,586.81 410.01,634.78 410.01,687.85 503.4,639.86 "
     id="polygon9"
     transform="matrix(0.08898908,0,0,0.08898908,-25.857557,-11.193857)" />
  <path
     class="uuid-a1a415d8-d4e1-4f83-a3f5-e7b8c1902a94"
     d="m 19.225201,18.488451 c 0,6.393865 -8.596345,6.393865 -8.596345,0 0,-2.112601 4.299952,-8.929165 4.299952,-8.929165 0,0 4.297283,6.814784 4.297283,8.929165 z"
     id="path9"
     style="stroke-width:0.0889891" />
  <path
     class="uuid-131f1f19-8127-469e-9ec7-ec489f454db4"
     d="m 17.077004,20.525411 c 0,3.655671 -4.297282,3.655671 -4.297282,0 0,-1.051851 2.148196,-4.461023 2.148196,-4.461023 0,0 2.148197,3.408282 2.148197,4.461023 z"
     id="path10"
     style="stroke-width:0.0889891" />
  <path
     class="uuid-e9b7ed14-2462-489d-a1c7-bc82fd2234e7"
     d="m 59.369955,13.245214 v 24.545858 c 0,3.83187 7.273967,3.210726 7.273967,0 V 13.245214 c 0,-3.83187 -7.273967,-3.83187 -7.273967,0 z"
     id="path11"
     style="stroke-width:0.0889891" />
  <polygon
     class="uuid-95fcdc2d-b844-420e-bb7f-8b956bb81b88"
     points="1039.47,349.58 1039.47,300.65 957.73,342.63 957.73,391.56 "
     id="polygon11"
     transform="matrix(0.08898908,0,0,0.08898908,-25.857557,-11.193857)" />
  <polygon
     class="uuid-95fcdc2d-b844-420e-bb7f-8b956bb81b88"
     points="1039.47,433.57 957.73,475.52 957.73,521.94 1039.47,479.99 "
     id="polygon12"
     transform="matrix(0.08898908,0,0,0.08898908,-25.857557,-11.193857)" />
  <path
     class="uuid-a1a415d8-d4e1-4f83-a3f5-e7b8c1902a94"
     d="m 66.890422,7.667379 c 0,5.902645 -7.524027,5.902645 -7.524027,0 0.0027,-1.850083 3.764238,-7.812352 3.764238,-7.812352 0,0 3.758899,5.962269 3.758899,7.812352 z"
     id="path12"
     style="stroke-width:0.0889891" />
  <path
     class="uuid-131f1f19-8127-469e-9ec7-ec489f454db4"
     d="m 65.012752,9.44983 c 0,3.520408 -3.758899,3.520408 -3.758899,0 -0.0027,-0.921927 1.87856,-3.902171 1.87856,-3.902171 0,0 1.881229,2.980244 1.881229,3.902171 z"
     id="path13"
     style="stroke-width:0.0889891" />
  <path
     class="uuid-e9b7ed14-2462-489d-a1c7-bc82fd2234e7"
     d="m 107.03251,24.827143 v 28.050248 c 0,4.008958 8.30535,3.302384 8.30535,0 V 24.827143 c 0.003,-4.006289 -8.30535,-4.006289 -8.30535,0 z"
     id="path14"
     style="stroke-width:0.0889891" />
  <polygon
     class="uuid-95fcdc2d-b844-420e-bb7f-8b956bb81b88"
     points="1586.69,490.41 1586.69,434.5 1493.33,482.47 1493.33,538.41 "
     id="polygon14"
     transform="matrix(0.08898908,0,0,0.08898908,-25.857557,-11.193857)" />
  <polygon
     class="uuid-95fcdc2d-b844-420e-bb7f-8b956bb81b88"
     points="1586.69,586.37 1493.33,634.4 1493.33,687.44 1586.69,639.45 "
     id="polygon15"
     transform="matrix(0.08898908,0,0,0.08898908,-25.857557,-11.193857)" />
  <path
     class="uuid-a1a415d8-d4e1-4f83-a3f5-e7b8c1902a94"
     d="m 115.6244,18.451965 c 0,6.430351 -8.59189,6.430351 -8.59189,0 0,-2.112601 4.29728,-8.929164 4.29728,-8.929164 0,0 4.29461,6.817453 4.29461,8.929164 z"
     id="path15"
     style="stroke-width:0.0889891" />
  <path
     class="uuid-131f1f19-8127-469e-9ec7-ec489f454db4"
     d="m 113.48065,20.491595 c 0,3.655671 -4.29995,3.655671 -4.29995,0 0,-1.05719 2.15087,-4.466362 2.15087,-4.466362 0,0 2.14819,3.408282 2.14819,4.466362 z"
     id="path16"
     style="stroke-width:0.0889891" />
  <path
     class="uuid-5933ef8e-8179-44d7-b4f9-47e94a235106"
     d="m 31.984455,42.283241 v 33.919077 c 0,4.299953 10.044198,3.444768 10.044198,0 V 42.283241 c 0,-4.299953 -10.044198,-4.299953 -10.044198,0 z"
     id="path17"
     style="stroke-width:0.0889891" />
  <polygon
     class="uuid-e9b7ed14-2462-489d-a1c7-bc82fd2234e7"
     points="762.85,704.49 762.85,636.91 649.99,694.89 649.99,762.53 "
     id="polygon17"
     transform="matrix(0.08898908,0,0,0.08898908,-25.857557,-11.193857)" />
  <polygon
     class="uuid-e9b7ed14-2462-489d-a1c7-bc82fd2234e7"
     points="762.85,820.54 649.99,878.55 649.99,942.69 762.85,884.71 "
     id="polygon18"
     transform="matrix(0.08898908,0,0,0.08898908,-25.857557,-11.193857)" />
  <path
     class="uuid-a1a415d8-d4e1-4f83-a3f5-e7b8c1902a94"
     d="m 42.3766,34.577676 c 0,7.139594 -10.392145,7.139594 -10.392145,0 0,-2.556656 5.198742,-10.791705 5.198742,-10.791705 0,0 5.193403,8.235939 5.193403,10.791705 z"
     id="path18"
     style="stroke-width:0.0889891" />
  <path
     class="uuid-131f1f19-8127-469e-9ec7-ec489f454db4"
     d="m 39.780788,37.043564 c 0,3.871025 -5.193402,3.871025 -5.193402,0 0,-1.277883 2.595811,-5.398968 2.595811,-5.398968 0,0 2.597591,4.120195 2.597591,5.398968 z"
     id="path19"
     style="stroke-width:0.0889891" />
  <path
     class="uuid-5933ef8e-8179-44d7-b4f9-47e94a235106"
     d="m 83.995903,42.21027 v 33.919077 c 0,4.302622 10.046867,3.444768 10.046867,0 V 42.21027 c 0,-4.299953 -10.046867,-4.299953 -10.046867,0 z"
     id="path20"
     style="stroke-width:0.0889891" />
  <polygon
     class="uuid-e9b7ed14-2462-489d-a1c7-bc82fd2234e7"
     points="1347.36,703.68 1347.36,636.06 1234.46,694.1 1234.46,761.71 "
     id="polygon20"
     transform="matrix(0.08898908,0,0,0.08898908,-25.857557,-11.193857)" />
  <polygon
     class="uuid-e9b7ed14-2462-489d-a1c7-bc82fd2234e7"
     points="1347.36,819.69 1234.46,877.76 1234.46,941.87 1347.36,883.86 "
     id="polygon21"
     transform="matrix(0.08898908,0,0,0.08898908,-25.857557,-11.193857)" />
  <path
     class="uuid-a1a415d8-d4e1-4f83-a3f5-e7b8c1902a94"
     d="m 94.388047,34.504705 c 0,7.103109 -10.392144,7.103109 -10.392144,0 0,-2.553986 5.196072,-10.791705 5.196072,-10.791705 0,0 5.196072,8.238609 5.196072,10.791705 z"
     id="path21"
     style="stroke-width:0.0889891" />
  <path
     class="uuid-131f1f19-8127-469e-9ec7-ec489f454db4"
     d="m 91.792236,36.970593 c 0,3.873694 -5.198742,3.873694 -5.198742,0 0,-1.277884 2.597591,-5.396298 2.597591,-5.396298 0,0 2.600261,4.117525 2.600261,5.396298 z"
     id="path22"
     style="stroke-width:0.0889891" />
  <path
     class="cls-4"
     d="M 53.695618,75.658443 V 104.05634 L 78.339454,89.86303 Z"
     id="path3-6"
     style="fill:#ffffff;stroke-width:1.12735" />
</svg>
